PathFileType	4	(X/Y/Z)	Patient4_TMGait_0pt6_02_right_21.trc.trc
DataRate	CameraRate	NumFrames	NumMarkers	Units	OrigDataRate	OrigDataStartFrame	OrigNumFrames
84.848484848485	84.848484848485	4	33	mm	84.848484848485	53	       141
Frame#	Time	Sacral			L.Shoulder			Chest			R.Shoulder			Neck			R.ASIS			L.ASIS			R.Thigh.Superior			R.Thigh.Lateral			R.Thigh.Inferior			R.Patella			L.Thigh.Superior			L.Thigh.Lateral			L.Thigh.Inferior			L.Patella			L.Shank.Superior			L.Shank.Lateral			L.Shank.Inferior			R.Shank.Superior			R.Shank.Lateral			R.Shank.Inferior			R.Heel			R.Midfoot.Superior			R.Midfoot.Lateral			R.Toe			L.Heel			L.Midfoot.Lateral			L.Midfoot.Superior			L.Toe			L.Elbow			L.Wrist			R.Elbow			R.Wrist			
		X1	Y1	Z1	X2	Y2	Z2	X3	Y3	Z3	X4	Y4	Z4	X5	Y5	Z5	X6	Y6	Z6	X7	Y7	Z7	X8	Y8	Z8	X9	Y9	Z9	X10	Y10	Z10	X11	Y11	Z11	X12	Y12	Z12	X13	Y13	Z13	X14	Y14	Z14	X15	Y15	Z15	X16	Y16	Z16	X17	Y17	Z17	X18	Y18	Z18	X19	Y19	Z19	X20	Y20	Z20	X21	Y21	Z21	X22	Y22	Z22	X23	Y23	Z23	X24	Y24	Z24	X25	Y25	Z25	X26	Y26	Z26	X27	Y27	Z27	X28	Y28	Z28	X29	Y29	Z29	X30	Y30	Z30	X31	Y31	Z31	X32	Y32	Z32	X33	Y33	Z33	

53	25.832857142857	806.077801150589	1014.103521964909	508.277802194571	975.557256635133	1434.826889504619	316.086318324954	1092.250175803452	1360.119670121192	464.538119888370	1032.178679403641	1438.658879042544	645.060510927958	992.337481414625	1496.766294357372	467.510532468997	1036.477895259555	945.831631054948	614.560702331331	1007.709734565913	961.812788482286	340.454182278970	1055.325004877168	738.612716802525	582.582228455288	963.798094652692	636.046907486543	640.869302438487	1032.631179582372	579.210502394996	558.726175193274	1024.019234147896	495.124017472284	561.867843229696	1095.160752752988	793.158691370116	365.768062057238	1058.212698755545	664.673653884587	284.144681328296	1167.869617883793	610.273376350800	340.626752228347	1192.379778634453	527.955486345069	330.570629502421	1146.463035641187	451.896585297276	324.152054474267	1026.447370737005	364.497561834945	280.599799213309	1063.980880489981	238.176414130651	331.910622379873	997.854285107539	407.684655219593	565.221310791137	927.200781392005	301.130484997649	622.176629698054	972.026858023655	209.383242522046	555.162502221538	839.535203579879	42.832704593555	518.331331154703	1012.510133347078	97.809978655730	551.544977582408	924.593537477291	36.728699455591	590.711530598132	1132.461199660960	43.865283957256	574.497354586409	914.212130391715	104.083954219806	378.000695112928	975.854589032356	92.311587855293	289.411536182421	1071.815418185613	137.583487926381	305.902163250255	1182.074162834215	67.392146688245	259.462670493114	907.373880504210	1079.608569473701	218.041909203316	940.867951166738	821.748344613776	216.775798287514	1110.735432330970	1102.494745331435	769.974407641663	1338.330852902680	992.239761758234	714.171154273675	
54	25.844642857143	804.960558413421	1013.852043775425	509.099846642943	973.801963825007	1434.396368139536	316.296170691216	1091.279593855825	1359.619597994345	464.071241908682	1032.400156598780	1438.360633573075	644.939569914892	991.534009331058	1496.333858781420	467.598790243491	1035.695409576710	945.247275682340	614.164959780292	1005.899861843175	961.629134945019	340.205326346908	1053.313330110300	737.926899409577	581.597834532488	961.770966050158	635.574833702798	640.702215361878	1029.601396150709	578.433048540997	558.126649821469	1020.420303534038	494.320924030129	561.316530019140	1093.329692281565	793.220532981169	365.929190506264	1057.391413543642	664.775860572889	284.015377649517	1166.197760845946	610.490569730081	342.054387860443	1192.003881993548	529.946960729313	331.577121556921	1149.471803702587	453.616749563879	324.095823516063	1034.939272071872	360.081640890643	278.938236667682	1079.258069293660	235.466174901300	329.753188908281	993.686681589745	406.990606663276	564.819487552176	922.557195441297	300.878208321808	622.049361765293	966.149586744195	208.835298216669	554.777234827061	832.453325738407	42.845901489404	518.335363500166	1005.442034252787	97.604715934804	551.394615346249	917.502184805842	36.733586868150	590.733889339516	1125.393996399552	43.541251987703	574.535363277785	936.991854488970	93.072181093529	373.958916191597	1000.103851361836	84.877982201750	285.966477086946	1093.288716887903	135.202859705785	303.467563927127	1207.633268822404	71.071131248871	258.080424871716	898.162317149592	1080.581587285724	218.747463462456	921.064693056824	821.845457379825	218.140188379784	1119.143683623632	1105.113110822904	769.490449199687	1352.248252925037	1010.230751450536	709.699742579241	
55	25.856428571429	803.887559923802	1013.527941819076	509.786282071904	972.124564338508	1433.963185688829	316.415339954062	1090.350871355250	1359.043039204486	463.501598136480	1032.628562219371	1437.918509082059	644.723870954667	990.768823384389	1495.831219198511	467.624597860451	1034.952893276026	944.599953760570	613.591855153777	1004.168053049930	961.261033327914	339.802738798452	1051.382941190093	737.173138281970	580.705360971116	959.720637716737	635.066801640451	640.506792606913	1026.578120333531	577.604548181680	557.545364479773	1016.810906507043	493.478820849755	560.740057218190	1091.280695674214	792.787964620854	365.933813330964	1056.055637769958	664.487929394119	283.735259914088	1163.925887558058	610.117842312828	343.357472675332	1190.935582503715	531.459507412010	332.529421348651	1151.816686808383	455.107418548921	324.083814200222	1043.169199041623	355.720794059156	277.270410408357	1094.078303191027	233.258004354723	327.834439197829	989.500767020094	406.261810203322	564.387438905858	917.917485016220	300.599530405038	621.932119843911	960.252089676705	208.270586241347	554.381514772087	825.363401458283	42.858224542299	518.342103264297	998.357744508904	97.389996173298	551.229168165166	910.404890095617	36.730800233820	590.757787993928	1118.328142972935	43.207364687582	574.566803779451	959.645176662219	83.144496399602	370.133206711069	1024.241992030474	78.363563509111	282.896533490493	1114.381456168468	133.530168661599	301.451806279413	1232.515292321606	75.465432510455	257.517519138302	889.108900481801	1081.793415480006	219.279285655249	902.176418751306	822.623475791336	219.607158850267	1127.269520641844	1107.756896125406	768.761144119382	1364.783932001665	1028.410345304480	705.125812815866	
56	25.868214285714	802.872189405814	1013.160810131316	510.336983643882	970.537961093981	1433.548849678763	316.435704717645	1089.468263890154	1358.418779533036	462.830817570540	1032.852400276828	1437.367558337383	644.403367763743	990.040687111736	1495.285213018741	467.576182782156	1034.265093238099	943.923698757475	612.885112418213	1002.514590931090	960.744052515928	339.266290804687	1049.522705915372	736.362184557373	579.929891517799	957.599880517683	634.547370961101	640.278385100167	1023.522809604198	576.743727270456	556.993230657678	1013.147022335729	492.617084096173	560.143333738111	1089.035510193875	791.937565053979	365.779686087849	1054.217369634557	663.866145762711	283.287207404137	1161.159899095045	609.265032863333	344.403263852323	1189.267542558949	532.557019606416	333.331821496277	1153.546664116489	456.409960066104	324.069872829317	1051.053545745443	351.535406674881	275.640230175432	1108.266574168327	231.625383310986	326.188653785595	985.254011371595	405.521097279454	563.926789649404	913.238618764686	300.315567656337	621.821343322575	954.318861647415	207.711093024517	553.984251805416	818.265903242877	42.872296850448	518.355164276516	991.260100296891	97.177539065310	551.061016305472	903.302080868124	36.722078527346	590.784986179115	1111.262992428030	42.877508077595	574.595044276981	981.845493300895	74.488736874966	366.664633894489	1047.920020304144	72.853796651518	280.317283264298	1134.825109475920	132.591219386640	299.892072908521	1256.409044968360	80.477404471285	257.785012226637	880.243177431154	1083.255832460777	219.677245039981	884.234726634528	824.000343420185	221.149152378459	1135.111095295697	1110.427516378935	767.775530316791	1375.940021164034	1046.616483581898	700.502598275916	
